<svg width="43" height="45" viewBox="0 0 43 45" fill="none" xmlns="http://www.w3.org/2000/svg">
<path fill-rule="evenodd" clip-rule="evenodd" d="M24.4616 10.082C24.2091 10.2277 24.125 10.5478 24.265 10.8298C24.3377 10.9762 24.5445 11.1157 24.6888 11.1157C24.7354 11.1157 24.7774 11.301 24.8226 11.7058C24.9615 12.9502 25.394 13.9358 26.1287 14.682L26.4533 15.0118L26.1785 15.2724C25.4436 15.9692 24.9634 17.0431 24.8226 18.3045C24.7747 18.7336 24.7368 18.8946 24.6836 18.8946C24.5424 18.8946 24.3158 19.0545 24.2527 19.1987C24.1721 19.3829 24.1721 19.5176 24.2527 19.7018C24.3875 20.0098 24.3427 20.0059 27.759 20.0059C30.0864 20.0059 30.9439 19.9885 31.0473 19.9395C31.2003 19.8669 31.3393 19.6339 31.3393 19.4502C31.3393 19.1835 31.0795 18.8946 30.8395 18.8946C30.7929 18.8946 30.7509 18.7092 30.7057 18.3045C30.5609 17.0076 30.0303 15.8698 29.2446 15.1713L29.0443 14.9932L29.2604 14.8151C30.0444 14.1691 30.5968 12.9287 30.7285 11.5185C30.7544 11.241 30.7881 11.1157 30.8368 11.1157C31.0794 11.1157 31.3393 10.8283 31.3393 10.56C31.3393 10.3764 31.2003 10.1434 31.0473 10.0708C30.8339 9.96957 24.6382 9.98007 24.4616 10.082ZM30.1411 11.4907C30.0586 12.3333 29.8185 13.0873 29.4492 13.6639C29.1548 14.1235 28.9526 14.3263 28.5112 14.6045C28.194 14.8044 28.1643 14.8391 28.1643 15.0111C28.1643 15.1798 28.1919 15.2146 28.4312 15.3489C29.09 15.7188 29.604 16.4092 29.8917 17.311C30.0318 17.7503 30.1654 18.4708 30.1654 18.7875C30.1654 18.8917 30.0997 18.8946 27.758 18.8946H25.3505L25.3875 18.5196C25.536 17.0122 26.1446 15.8849 27.1 15.3476C27.3363 15.2147 27.3639 15.1794 27.3639 15.0111C27.3639 14.8391 27.3343 14.8044 27.0171 14.6045C26.5871 14.3335 26.3729 14.1245 26.1 13.7092C25.7212 13.1331 25.4732 12.3609 25.3875 11.4907L25.3505 11.1157H27.7641H30.1778L30.1411 11.4907ZM25.763 11.7408C25.9548 13.0031 26.5158 13.9558 27.2928 14.3385C27.7282 14.553 27.8866 14.5485 28.2742 14.3104C29.06 13.8279 29.5859 12.9216 29.7653 11.7408L29.8012 11.5046H27.7641H25.727L25.763 11.7408Z" fill="#25414C"/>
<path fill-rule="evenodd" clip-rule="evenodd" d="M23.7096 0.387796C18.8047 1.60392 14.7111 5.3491 13.1146 10.0812C12.8469 10.8744 12.5722 11.9565 12.5042 12.4855C12.2498 14.4641 12.3402 14.3572 10.9192 14.3572C9.56635 14.3572 9.0352 14.6588 9.27581 15.2905C9.48414 15.8379 14.827 24.3314 15.234 24.7621C15.6088 25.159 15.6124 25.159 15.9953 24.7621C16.6316 24.1033 22.0269 15.3267 22.0269 14.9509C22.0269 14.473 21.6269 14.3572 19.9781 14.3572H18.5637L18.6916 13.397C19.021 10.9235 21.0003 8.36009 23.5075 7.15974C27.8892 5.06185 32.8318 6.845 35.0236 11.3145C35.7403 12.7762 35.7619 12.8856 35.7619 15.0647C35.7619 17.252 35.7427 17.3486 35.0082 18.8469C33.7299 21.4544 31.4922 23.1381 28.588 23.6776C26.2463 24.1126 23.551 23.3691 21.657 21.7655C20.6861 20.9436 20.7715 20.9834 20.339 21.1508C19.7872 21.3642 19.9933 21.9828 20.868 22.7374C23.1365 24.695 26.6457 25.521 29.5054 24.77C34.1408 23.5527 37.069 19.7647 37.063 14.993C37.0598 12.3628 36.3067 10.3236 34.6314 8.40841C30.9693 4.22173 24.5008 3.91163 20.4952 7.73081C18.773 9.37285 17.7606 11.2381 17.447 13.3465L17.3119 14.2561L16.3769 14.3172C15.393 14.3813 14.8855 14.752 15.0806 15.2642C15.1758 15.5147 15.6517 15.5701 17.7097 15.5701C19.0916 15.5701 20.2223 15.6301 20.2223 15.7035C20.2223 15.9121 15.7515 23.0502 15.624 23.0453C15.4987 23.0405 10.9988 15.8852 10.9988 15.691C10.9988 15.6245 11.5338 15.5701 12.1874 15.5701H13.3761L13.4956 14.4077C13.9227 10.251 15.4104 7.14397 18.1635 4.66019C19.5875 3.37534 22.458 1.91421 24.3328 1.51982C31.5566 0.000279903 38.6569 4.46592 40.487 11.68C40.7003 12.5209 40.8749 13.5963 40.8749 14.0698C40.8749 15.184 41.0321 15.5701 41.4861 15.5701C42.0275 15.5701 42.1506 15.2315 42.0963 13.8896C41.8947 8.91499 38.396 3.71333 33.7568 1.49193C30.6936 0.0249418 26.8684 -0.395324 23.7096 0.387796ZM40.9566 17.4931C40.7258 18.4206 41.6511 19.0022 42.078 18.198C42.2304 17.9108 42.2304 17.6767 42.078 17.3894C41.7704 16.8101 41.1115 16.8709 40.9566 17.4931ZM41.1156 20.4621C40.7851 20.7952 40.814 21.342 41.1815 21.7125C41.7805 22.3166 42.3914 21.5848 42.0546 20.6668C41.8735 20.1732 41.4859 20.0887 41.1156 20.4621ZM10.8853 27.7133C10.5471 27.8124 8.8804 28.894 7.18167 30.117L4.0928 32.3407L3.53598 31.7259C2.91741 31.0433 3.01325 31.02 1.22389 32.2887C-0.0800321 33.2133 -0.288964 33.6089 0.345853 33.9516C0.643211 34.1121 0.921118 34.0108 1.68466 33.4634C2.21461 33.0836 2.71609 32.8153 2.79911 32.8671C3.05075 33.0237 9.59623 42.4024 9.58299 42.5871C9.57618 42.6817 9.1928 43.0357 8.73082 43.3741C7.82151 44.0397 7.61177 44.74 8.2919 44.8384C8.75709 44.9055 11.1993 43.1893 11.1993 42.7953C11.1993 42.651 11.0668 42.3565 10.905 42.1406C10.4434 41.5254 10.5358 41.3089 11.45 40.8656L12.3021 40.4524L18.7185 42.0826C24.901 43.6532 25.1641 43.7024 25.9369 43.4305C26.378 43.2754 29.7769 40.9897 33.4897 38.3517C39.6117 34.0017 40.2814 33.4699 40.679 32.6419C41.6828 30.5515 40.179 28.2276 37.8224 28.2276C36.9596 28.2276 36.6452 28.3806 34.5739 29.8067C31.4956 31.9265 30.95 32.4009 31.1091 32.8187C31.3402 33.426 31.9145 33.178 34.546 31.335C36.564 29.9218 37.2904 29.5183 37.8176 29.5183C38.7553 29.5183 39.2556 29.8365 39.5913 30.6463C40.1697 32.0423 39.9911 32.2167 32.6257 37.4439C28.9467 40.0546 25.7682 42.2518 25.5621 42.3261C25.3444 42.4048 22.5316 41.7779 18.845 40.8292C14.5775 39.731 12.3069 39.2355 11.9043 39.3145C11.5753 39.3794 10.9581 39.6645 10.5326 39.9485C10.1071 40.2323 9.73077 40.4351 9.69608 40.3989C9.66159 40.3627 8.54415 38.788 7.21275 36.8993C5.33056 34.2289 4.84692 33.4135 5.03821 33.2319C5.69388 32.6103 10.5172 29.245 11.1111 28.9947C11.4834 28.8381 12.0842 28.7115 12.4461 28.7137C13.5708 28.7206 27.2783 32.8616 27.5875 33.2879C28.5576 34.6251 27.7892 36.4024 26.2499 36.3816C25.8573 36.3763 23.9568 35.9811 22.0269 35.5035C20.097 35.026 18.4121 34.6734 18.2828 34.7203C17.9607 34.8368 17.8212 35.2639 18.0065 35.5659C18.2018 35.8845 25.2132 37.6044 26.3126 37.6034C29.0687 37.6009 30.2665 34.1436 28.1888 32.1874C27.8273 31.8468 25.7781 31.1611 20.5002 29.6147C13.3151 27.5091 12.2807 27.3046 10.8853 27.7133Z" fill="#25414C"/>
</svg>
