<svg width="46" height="40" viewBox="0 0 46 40" fill="none" xmlns="http://www.w3.org/2000/svg">
<path fill-rule="evenodd" clip-rule="evenodd" d="M38.8115 34.9426C38.9882 34.8407 39.0471 34.6167 38.9491 34.4195C38.8982 34.317 38.7536 34.2195 38.6526 34.2195C38.62 34.2195 38.5906 34.0898 38.559 33.8066C38.4618 32.9361 38.1593 32.2466 37.6453 31.7245L37.4182 31.4938L37.6105 31.3115C38.1246 30.824 38.4605 30.0728 38.559 29.1903C38.5925 28.89 38.6191 28.7774 38.6563 28.7774C38.7551 28.7774 38.9136 28.6656 38.9577 28.5647C39.0141 28.4358 39.0141 28.3416 38.9577 28.2127C38.8634 27.9973 38.8948 28 36.5048 28C34.8766 28 34.2766 28.0121 34.2043 28.0465C34.0973 28.0972 34 28.2602 34 28.3887C34 28.5753 34.1818 28.7774 34.3497 28.7774C34.3823 28.7774 34.4117 28.9071 34.4433 29.1903C34.5446 30.0976 34.9158 30.8936 35.4654 31.3822L35.6056 31.5068L35.4544 31.6314C34.9059 32.0833 34.5195 32.9511 34.4273 33.9377C34.4092 34.1318 34.3856 34.2195 34.3516 34.2195C34.1818 34.2195 34 34.4206 34 34.6082C34 34.7367 34.0973 34.8997 34.2043 34.9505C34.3536 35.0213 38.688 35.0139 38.8115 34.9426ZM34.8383 33.9571C34.896 33.3677 35.064 32.8402 35.3223 32.4368C35.5282 32.1152 35.6697 31.9734 35.9785 31.7788C36.2005 31.6389 36.2212 31.6146 36.2212 31.4943C36.2212 31.3763 36.2019 31.3519 36.0345 31.258C35.5736 30.9992 35.214 30.5162 35.0127 29.8853C34.9147 29.578 34.8213 29.0739 34.8213 28.8524C34.8213 28.7795 34.8672 28.7774 36.5055 28.7774L38.1897 28.7774L38.1639 29.0398C38.0599 30.0944 37.6341 30.883 36.9658 31.2589C36.8005 31.3518 36.7811 31.3765 36.7811 31.4943C36.7811 31.6146 36.8019 31.6389 37.0238 31.7788C37.3246 31.9683 37.4744 32.1146 37.6654 32.4051C37.9304 32.8081 38.1039 33.3484 38.1639 33.9571L38.1897 34.2195L36.5012 34.2195L34.8126 34.2195L34.8383 33.9571ZM37.9012 33.7822C37.767 32.8991 37.3745 32.2326 36.8309 31.9648C36.5263 31.8148 36.4155 31.8179 36.1443 31.9845C35.5946 32.322 35.2267 32.9561 35.1011 33.7822L35.076 33.9474L36.5012 33.9474L37.9263 33.9474L37.9012 33.7822Z" fill="#25414C"/>
<path fill-rule="evenodd" clip-rule="evenodd" d="M22.8115 24.9426C22.9882 24.8407 23.0471 24.6167 22.9491 24.4195C22.8982 24.317 22.7536 24.2195 22.6526 24.2195C22.62 24.2195 22.5906 24.0898 22.559 23.8066C22.4618 22.9361 22.1593 22.2466 21.6453 21.7245L21.4182 21.4938L21.6105 21.3115C22.1246 20.824 22.4605 20.0728 22.559 19.1903C22.5925 18.89 22.6191 18.7774 22.6563 18.7774C22.7551 18.7774 22.9136 18.6656 22.9577 18.5647C23.0141 18.4358 23.0141 18.3416 22.9577 18.2127C22.8634 17.9973 22.8948 18 20.5048 18C18.8766 18 18.2766 18.0121 18.2043 18.0465C18.0973 18.0972 18 18.2602 18 18.3887C18 18.5753 18.1818 18.7774 18.3497 18.7774C18.3823 18.7774 18.4117 18.9071 18.4433 19.1903C18.5446 20.0976 18.9158 20.8936 19.4654 21.3822L19.6056 21.5068L19.4544 21.6314C18.9059 22.0833 18.5195 22.9511 18.4273 23.9377C18.4092 24.1318 18.3856 24.2195 18.3516 24.2195C18.1818 24.2195 18 24.4206 18 24.6082C18 24.7367 18.0973 24.8997 18.2043 24.9505C18.3536 25.0213 22.688 25.0139 22.8115 24.9426ZM18.8383 23.9571C18.896 23.3677 19.064 22.8402 19.3223 22.4368C19.5282 22.1152 19.6697 21.9734 19.9785 21.7788C20.2005 21.6389 20.2212 21.6146 20.2212 21.4943C20.2212 21.3763 20.2019 21.3519 20.0345 21.258C19.5736 20.9992 19.214 20.5162 19.0127 19.8853C18.9147 19.578 18.8213 19.0739 18.8213 18.8524C18.8213 18.7795 18.8672 18.7774 20.5055 18.7774L22.1897 18.7774L22.1639 19.0398C22.0599 20.0944 21.6341 20.883 20.9658 21.2589C20.8005 21.3518 20.7811 21.3765 20.7811 21.4943C20.7811 21.6146 20.8019 21.6389 21.0238 21.7788C21.3246 21.9683 21.4744 22.1146 21.6654 22.4051C21.9304 22.8081 22.1039 23.3484 22.1639 23.9571L22.1897 24.2195L20.5012 24.2195L18.8126 24.2195L18.8383 23.9571ZM21.9012 23.7822C21.767 22.8991 21.3745 22.2326 20.8309 21.9648C20.5263 21.8148 20.4155 21.8179 20.1443 21.9845C19.5946 22.322 19.2267 22.9561 19.1011 23.7822L19.076 23.9474L20.5012 23.9474L21.9263 23.9474L21.9012 23.7822Z" fill="#25414C"/>
<path fill-rule="evenodd" clip-rule="evenodd" d="M6.738 0.106384C6.38516 0.232653 5.67173 0.929813 3.43638 3.33253C2.2918 4.56279 2.18091 4.93641 2.69379 5.83436C2.91927 6.22916 3.32787 6.47343 3.88796 6.54839L4.22777 6.59381V7.90035V9.2068H2.67213C1.174 9.2068 1.10265 9.21488 0.742854 9.42524C0.493768 9.57084 0.307746 9.77048 0.184612 10.0242C0.0020258 10.4004 0 10.4799 0 17.2364C0 21.4421 0.032589 24.129 0.0847315 24.2263C0.131325 24.3131 0.285815 24.4323 0.427973 24.4911C0.642092 24.5795 0.733518 24.5737 0.959791 24.4569C1.11014 24.3794 1.24244 24.3071 1.2538 24.2962C1.26516 24.2854 1.29484 21.1922 1.31986 17.4226L1.36522 10.5688L9.5345 10.5464L17.7038 10.524V11.1834V11.8429H12.3706C6.54344 11.8429 6.66235 11.8328 6.39793 12.3496C6.33029 12.4817 6.2305 12.7994 6.17615 13.0555C6.04888 13.6556 5.88355 13.9671 5.43136 14.4583C5.05386 14.8686 4.17043 15.3575 3.80658 15.3576C3.44854 15.3578 3.00286 15.6037 2.8208 15.9016C2.64632 16.1871 2.64297 16.3258 2.64271 23.4241C2.64235 31.3101 2.62007 30.9606 3.14431 31.315C3.38327 31.4766 3.77707 31.4825 15.7365 31.505L28.0822 31.5281L28.1154 32.1201C28.1338 32.4457 28.1348 32.7416 28.1177 32.7779C28.0809 32.8559 1.66398 32.8683 1.46052 32.7905C1.33721 32.7433 1.32118 32.3892 1.32118 29.7092C1.32118 27.9389 1.28603 26.6158 1.23645 26.5234C1.18985 26.4366 1.03536 26.3174 0.893204 26.2586C0.680494 26.1708 0.5881 26.1759 0.372044 26.2873C0.227595 26.3618 0.0848196 26.4868 0.0546967 26.565C0.024662 26.6433 0.000880785 28.0979 0.00193773 29.7975C0.00413969 33.3356 0.0172634 33.4109 0.71326 33.8705L1.08812 34.1179L14.8128 34.1412C25.9352 34.1601 28.5374 34.186 28.5374 34.2776C28.5374 34.4494 29.2037 35.7875 29.5216 36.2539C30.696 37.9772 32.4636 39.2234 34.4827 39.7513C35.6115 40.0465 37.2639 40.0834 38.3582 39.838C41.7533 39.0765 44.3718 36.3494 44.9648 32.9576C45.2108 31.5503 45.0979 30.1904 44.6179 28.7788C44.1746 27.4747 43.6317 26.6386 42.4758 25.48L41.485 24.4868L41.4811 17.6596C41.479 13.9047 41.4439 10.6601 41.4031 10.4495C41.3211 10.0261 41.1151 9.70669 40.7468 9.43192C40.5276 9.2684 40.3435 9.24643 38.8586 9.2068L37.2132 9.16286L37.1889 7.879L37.1645 6.59522L37.5647 6.54048C38.4141 6.42431 38.9347 5.9123 38.9997 5.12885C39.0621 4.37835 39.0506 4.36333 36.0083 1.24439C34.8298 0.0361761 34.54 -0.119705 33.8147 0.0647338C33.4717 0.152076 33.2153 0.378517 31.6431 1.98328C30.6626 2.98403 29.755 3.95183 29.6263 4.1339C28.9519 5.08729 29.5558 6.37845 30.75 6.53644L31.1798 6.59338V7.90105V9.20873L27.4585 9.1858L23.7372 9.16286L23.7128 7.87838L23.6885 6.59399L24.1206 6.53679C24.594 6.47414 25.0318 6.21993 25.3087 5.84692C25.5613 5.50686 25.607 4.68678 25.394 4.3157C25.1866 3.95429 21.8202 0.42746 21.4716 0.206292C21.151 0.00296129 20.5091 -0.0256843 20.103 0.14531C19.6876 0.320171 16.2253 3.96 16.0067 4.45172C15.5952 5.37734 16.2219 6.39198 17.296 6.53881L17.7038 6.59461V7.9007V9.2068H14.0045H10.3052V7.90633V6.60585L10.8162 6.50059C11.3348 6.39374 11.7296 6.09594 11.9681 5.6319C12.098 5.37901 12.0889 4.55611 11.9536 4.31632C11.7817 4.01211 8.34984 0.42623 8.05513 0.242934C7.68 0.00972724 7.15893 -0.0443126 6.738 0.106384ZM9.08177 3.13183C10.145 4.24866 10.7015 4.89784 10.7015 5.02103C10.7015 5.19387 10.6445 5.21224 9.97894 5.25266C9.55986 5.27814 9.20834 5.34448 9.14219 5.41056C9.05914 5.49351 9.01607 6.02055 8.98401 7.3437L8.93997 9.16286H7.26648H5.59298L5.54894 7.33227C5.49707 5.17595 5.53468 5.25266 4.52996 5.25266C3.57387 5.25266 3.53318 5.13324 4.23728 4.39373C6.87734 1.62091 7.21794 1.28735 7.33755 1.35748C7.40599 1.39754 8.19086 2.19602 9.08177 3.13183ZM22.4735 3.0654C23.6054 4.23899 24.1775 4.89547 24.1775 5.0205C24.1775 5.19405 24.1212 5.21215 23.4537 5.25266C22.3383 5.32032 22.4205 5.05179 22.3908 8.72659L22.3655 11.8429H20.6953H19.025V8.75111C19.025 5.69772 19.0226 5.65686 18.8335 5.45599C18.6676 5.27998 18.5568 5.25266 18.0075 5.25266C17.0803 5.25266 17.0187 5.12902 17.6242 4.48265C19.1416 2.86277 20.6571 1.29851 20.7093 1.29851C20.7424 1.29851 21.5363 2.09356 22.4735 3.0654ZM35.9699 3.09484C36.9201 4.08276 37.6976 4.94845 37.6976 5.01857C37.6976 5.20064 37.5016 5.25266 36.816 5.25266C36.2695 5.25266 36.1959 5.27436 36.0305 5.48419C35.8597 5.70079 35.8479 5.82838 35.8479 7.46127V9.2068H34.1745H32.501V7.46127C32.501 5.82838 32.4892 5.70079 32.3184 5.48419C32.153 5.27436 32.0794 5.25266 31.5329 5.25266C30.8648 5.25266 30.6513 5.2002 30.6513 5.03623C30.6513 4.91761 34.0627 1.29851 34.1745 1.29851C34.2117 1.29851 35.0197 2.10683 35.9699 3.09484ZM40.1103 10.6639C40.1397 10.7403 40.1638 13.7299 40.1638 17.3074C40.1638 23.4676 40.1556 23.8087 40.0097 23.7492C39.9249 23.7146 39.6277 23.6079 39.3491 23.512L38.8426 23.3377L38.8405 18.1834C38.8394 15.3485 38.8018 12.871 38.7571 12.6777C38.7085 12.4676 38.5671 12.229 38.4055 12.0845L38.1352 11.8429H34.7293C31.3535 11.8429 31.3214 11.8446 31.1194 12.0339C30.7597 12.3712 30.886 12.8965 31.3672 13.0638C31.5495 13.1272 32.6664 13.1609 34.5839 13.1609H37.5214V18.1089V23.0568L36.5306 23.0676C35.9856 23.0734 35.3514 23.1154 35.1213 23.1607L34.7029 23.2433V21.8886C34.7029 20.5676 34.6976 20.5287 34.4867 20.3184C34.3678 20.1998 34.1679 20.1027 34.0423 20.1027C33.9168 20.1027 33.7169 20.1998 33.598 20.3184C33.3848 20.531 33.3817 20.5561 33.3795 22.0977L33.3773 23.6614L32.7794 23.9489C31.9029 24.3703 31.5904 24.6565 31.6011 25.0282C31.6108 25.3733 31.8726 25.6385 32.2033 25.6385C32.3195 25.6385 32.7412 25.4639 33.1404 25.2504C37.4831 22.9286 42.7339 25.4281 43.6469 30.2516C43.9159 31.6732 43.7274 33.1605 43.1084 34.4993C42.1922 36.4812 40.4929 37.904 38.3582 38.4768C37.2928 38.7625 35.7215 38.744 34.6776 38.4331C32.4736 37.777 30.7925 36.3038 29.9539 34.2936C29.0936 32.2318 29.2821 29.685 30.4327 27.8219C30.7904 27.2428 30.8256 26.8678 30.5466 26.6085C30.2729 26.3541 29.8973 26.3786 29.6279 26.6686C29.2667 27.0574 28.5473 28.6104 28.3446 29.4388L28.1565 30.2077H16.06H3.96353V23.448V16.6882L4.46734 16.5421C5.22684 16.3218 5.62187 16.0897 6.23147 15.5057C6.80257 14.9587 7.33659 14.0631 7.44941 13.4634L7.50587 13.1631L18.2056 13.14L28.9053 13.117L29.0737 12.9095C29.2728 12.6643 29.2916 12.2956 29.1172 12.0574C28.9997 11.8969 28.8363 11.8842 26.3647 11.8429L23.7372 11.799L23.7113 11.1619L23.6854 10.5248H31.8711C39.2542 10.5248 40.0621 10.5385 40.1103 10.6639ZM32.8092 14.6909C32.1529 14.982 31.8837 15.5665 31.8864 16.6949C31.8886 17.6322 32.0417 18.0781 32.491 18.4553C32.8475 18.7546 33.1518 18.8081 34.2835 18.7709C35.1301 18.743 35.2269 18.7215 35.5249 18.4945C35.9601 18.163 36.1306 17.801 36.1807 17.1023C36.2723 15.8249 36.0347 15.148 35.3609 14.7674C35.0561 14.5952 34.8867 14.57 34.0423 14.5718C33.4299 14.573 32.9762 14.6169 32.8092 14.6909ZM19.7962 15.5353C16.2286 16.0963 13.8729 19.5913 14.711 23.0793C14.9863 24.2248 15.4922 25.1083 16.3793 25.9924C17.2082 26.8185 17.9 27.2351 19.025 27.5855C19.8798 27.8518 21.5038 27.8724 22.3279 27.6273C24.151 27.0852 25.5494 25.8962 26.3312 24.2231C27.3199 22.1075 26.9954 19.55 25.5089 17.7426C24.7185 16.7814 23.4395 15.9686 22.2398 15.6651C21.5607 15.4932 20.4416 15.4338 19.7962 15.5353ZM34.8256 16.0239C34.9043 16.2283 34.8882 17.2283 34.8041 17.3605C34.7522 17.4423 34.5242 17.4669 33.9907 17.4484L33.2496 17.4226L33.2235 16.7719C33.2091 16.4139 33.2177 16.0679 33.2428 16.003C33.3139 15.818 34.7537 15.8369 34.8256 16.0239ZM22.2365 17.0392C22.9517 17.2772 23.4664 17.5862 24.0364 18.1199C25.7388 19.7136 26.0738 22.3711 24.8113 24.268C23.6599 25.998 21.6005 26.8406 19.6462 26.381C17.5239 25.882 16.0165 24.1067 15.882 21.9479C15.7273 19.4671 17.4557 17.2958 19.9363 16.8547C20.5607 16.7437 21.599 16.827 22.2365 17.0392ZM6.9582 18.0817C6.79112 18.2483 6.78204 18.3745 6.78204 20.542C6.78204 22.7095 6.79112 22.8357 6.9582 23.0024C7.18078 23.2244 7.58171 23.2279 7.85123 23.0101L8.05918 22.8422V20.559C8.05918 18.4371 8.04729 18.2628 7.89139 18.0909C7.67243 17.8495 7.19557 17.8448 6.9582 18.0817ZM6.20953 24.6207C5.88126 24.7669 5.50217 25.1636 5.37842 25.4904C5.3269 25.6264 5.28471 26.1441 5.28471 26.6409C5.28471 27.4164 5.3136 27.5987 5.48949 27.9312C5.82313 28.5622 6.18346 28.7107 7.38529 28.7125C8.53199 28.7141 8.85233 28.6106 9.23115 28.1156C9.45434 27.824 9.4702 27.7413 9.49768 26.7201C9.52551 25.6865 9.51609 25.6161 9.30074 25.2495C8.95459 24.6602 8.53507 24.4953 7.39278 24.4996C6.82247 24.5017 6.37354 24.5476 6.20953 24.6207ZM34.999 25.5489C32.3124 26.2516 30.3871 28.7361 30.3871 31.5005C30.3871 33.3608 31.2525 35.2002 32.6558 36.3221C33.2694 36.8127 34.3677 37.3574 35.1433 37.5557C35.9853 37.771 37.3032 37.7509 38.1781 37.5092C39.981 37.0115 41.3279 35.889 42.1423 34.2058C42.6373 33.1826 42.7589 32.6542 42.7589 31.5257C42.7589 30.3923 42.6388 29.8751 42.1264 28.8018C41.7817 28.0796 41.6196 27.86 40.9238 27.1729C39.6231 25.8883 38.3687 25.3741 36.5526 25.381C35.942 25.3833 35.4141 25.4404 34.999 25.5489ZM8.1728 26.6305L8.19826 27.4028L7.42414 27.3774L6.64993 27.3519L6.62377 26.7012C6.60941 26.3432 6.61866 25.9956 6.64438 25.9287C6.68014 25.8356 6.86246 25.8131 7.4192 25.8326L8.14726 25.8581L8.1728 26.6305ZM37.8797 26.8345C38.7458 27.0911 39.3864 27.4773 40.0317 28.1321C40.745 28.856 41.1605 29.6059 41.3522 30.5152C41.5158 31.2912 41.5157 31.7611 41.3519 32.5362C41.0945 33.7538 40.3076 34.9002 39.2474 35.6023C38.0672 36.3838 36.3707 36.6072 35.0625 36.1532C32.642 35.3135 31.2625 32.8519 31.8409 30.4045C32.2443 28.6973 33.605 27.2947 35.3195 26.8186C35.904 26.6563 37.3075 26.6651 37.8797 26.8345Z" fill="#25414C"/>
</svg>
